<svg xmlns="http://www.w3.org/2000/svg" xmlns:svg="http://www.w3.org/2000/svg" id="svg2562" version="1.1" viewBox="0 0 1024 1024"><metadata id="metadata2568"/><desc id="desc2556">note_add icon - Licensed under Apache License v2.0 (http://www.apache.org/licenses/LICENSE-2.0) - Created with Iconfu.com - Derivative work of Material icons (Copyright Google Inc.)</desc><path style="mix-blend-mode:normal;fill:#03b8e5;fill-rule:nonzero" id="path3115" d="M 426.6699,917.33988 512.4297,1024 597.3301,917.33988 Z"/><path style="mix-blend-mode:normal;fill:#03b8e5;fill-rule:nonzero" id="path3115-7" d="M 426.6699,106.66012 512.4297,0 597.3301,106.66012 Z"/><path style="mix-blend-mode:normal;fill:#03b8e5;fill-rule:nonzero" id="path3115-7-9" d="M 917.33988,426.6699 1024,512.4297 917.33988,597.3301 Z"/><path style="mix-blend-mode:normal;fill:#03b8e5;fill-rule:nonzero" id="path3115-7-9-4" d="M 106.66016,426.6699 0,512.4297 106.66016,597.3301 Z"/><g id="g3198" transform="matrix(0.73241615,0,0,0.73241615,137.00293,137.00293)" style="mix-blend-mode:normal;fill:#03b8e5;fill-rule:nonzero"><path id="path3196" d="m 938.67,170.67 v 682.66 c 0,46.93 -38.41,85.34 -85.34,85.34 H 170.67 c -46.93,0 -85.34,-38.41 -85.34,-85.34 V 170.67 c 0,-46.93 38.41,-85.34 85.34,-85.34 h 682.66 c 46.93,0 85.34,38.41 85.34,85.34 z m -597.34,0 H 170.67 v 170.66 h 170.66 z m 0,512 H 170.67 v 170.66 h 170.66 z m 0,-256 H 170.67 v 170.66 h 170.66 z m 256,-256 H 426.67 v 170.66 h 170.66 z m 256,0 H 682.67 v 170.66 h 170.66 z m -256,512 H 426.67 v 170.66 h 170.66 z m 0,-256 H 426.67 v 170.66 h 170.66 z m 256,256 H 682.67 v 170.66 h 170.66 z m 0,-256 H 682.67 v 170.66 h 170.66 z"/></g></svg>