<svg xmlns="http://www.w3.org/2000/svg" xmlns:svg="http://www.w3.org/2000/svg" id="svg2562" version="1.1" viewBox="0 0 1024 1024"><metadata id="metadata2568"/><desc id="desc2556">note_add icon - Licensed under Apache License v2.0 (http://www.apache.org/licenses/LICENSE-2.0) - Created with Iconfu.com - Derivative work of Material icons (Copyright Google Inc.)</desc><g style="mix-blend-mode:normal;fill:#03b8e5;fill-rule:nonzero" id="g2560" transform="matrix(0.73242903,0,0,0.73242903,136.99634,136.99634)"><path id="path2558" d="m 853.33,341.33 v 512 c 0,46.93 -38.4,85.34 -85.33,85.34 H 255.57 c -46.93,0 -84.9,-38.41 -84.9,-85.34 l 0.42,-682.66 c 0,-46.93 37.98,-85.34 84.91,-85.34 h 341.33 z m -170.66,256 h -128 v -128 h -85.34 v 128 h -128 v 85.34 h 128 v 128 h 85.34 v -128 h 128 z M 789.33,384 554.67,149.33 V 384 Z"/></g><path style="mix-blend-mode:normal;fill:#03b8e5;fill-rule:nonzero" id="path3115" d="M 426.6699,917.33988 512.4297,1024 597.3301,917.33988 Z"/><path style="mix-blend-mode:normal;fill:#03b8e5;fill-rule:nonzero" id="path3115-7" d="M 426.6699,106.66012 512.4297,0 597.3301,106.66012 Z"/><path style="mix-blend-mode:normal;fill:#03b8e5;fill-rule:nonzero" id="path3115-7-9" d="M 917.33988,426.6699 1024,512.4297 917.33988,597.3301 Z"/><path style="mix-blend-mode:normal;fill:#03b8e5;fill-rule:nonzero" id="path3115-7-9-4" d="M 106.66016,426.6699 0,512.4297 106.66016,597.3301 Z"/></svg>