<svg xmlns="http://www.w3.org/2000/svg" xmlns:svg="http://www.w3.org/2000/svg" id="svg2" width="16" height="16" version="1.1" viewBox="0 0 16 16"><g id="layer1" transform="translate(0,-1036.3622)"><g id="g5228" transform="translate(628,-140.49998)"><path style="color:#000;font-style:normal;font-variant:normal;font-weight:400;font-stretch:normal;font-size:medium;line-height:normal;font-family:sans-serif;text-indent:0;text-align:start;text-decoration:none;text-decoration-line:none;text-decoration-style:solid;text-decoration-color:#000;letter-spacing:normal;word-spacing:normal;text-transform:none;direction:ltr;block-progression:tb;writing-mode:lr-tb;baseline-shift:baseline;text-anchor:start;white-space:normal;clip-rule:nonzero;display:inline;overflow:visible;visibility:visible;opacity:1;isolation:auto;mix-blend-mode:normal;color-interpolation:sRGB;color-interpolation-filters:linearRGB;solid-color:#000;solid-opacity:1;fill:#000;fill-opacity:1;fill-rule:evenodd;stroke:none;stroke-width:1px;stroke-linecap:round;stroke-linejoin:round;stroke-miterlimit:4;stroke-dasharray:none;stroke-dashoffset:0;stroke-opacity:1;color-rendering:auto;image-rendering:auto;shape-rendering:auto;text-rendering:auto;enable-background:accumulate" id="path3340" d="M 4.484375 4 A 0.50005 0.50005 0 0 0 4.5351562 5 L 11.464844 5 A 0.50005 0.50005 0 1 0 11.464844 4 L 4.5351562 4 A 0.50005 0.50005 0 0 0 4.484375 4 z M 4.484375 7 A 0.50005 0.50005 0 0 0 4.5351562 8 L 11.464844 8 A 0.50005 0.50005 0 1 0 11.464844 7 L 4.5351562 7 A 0.50005 0.50005 0 0 0 4.484375 7 z M 4.484375 10 A 0.50005 0.50005 0 0 0 4.5351562 11 L 11.464844 11 A 0.50005 0.50005 0 1 0 11.464844 10 L 4.5351562 10 A 0.50005 0.50005 0 0 0 4.484375 10 z" transform="translate(-628,1176.8622)"/></g></g><metadata/></svg>