<svg xmlns="http://www.w3.org/2000/svg" xmlns:svg="http://www.w3.org/2000/svg" id="svg1145" version="1.1" viewBox="0 0 1024 1024"><metadata id="metadata1151"/><desc id="desc1129">window_size icon - Licensed under Iconfu Standard License v1.0 (https://www.iconfu.com/iconfu_standard_license) - Incors GmbH</desc><path id="path1797-1" d="M 71.53142,291.89723 H 950.1828 l 0.6743,0.6742 v 586.08 l -0.6743,0.6743 H 71.53142 l -0.6743,-0.6743 v -586.08 z" visibility="hidden" style="visibility:hidden;mix-blend-mode:normal;fill:#fff;fill-rule:nonzero;stroke-width:.99999988;fill-opacity:1"/><rect id="rect1739-8" width="327.709" height="560.904" x="-911.344" y="412.135" transform="rotate(-90)" style="opacity:1;fill:#ffd292;fill-opacity:1;stroke:none;stroke-width:37.79526901;stroke-linecap:round;stroke-linejoin:miter;stroke-miterlimit:4;stroke-dasharray:none;stroke-opacity:1;paint-order:fill markers stroke"/><path id="path1799" d="M 988.40121,578.11175 V 651.2546 H 409.96541 V 578.11175 Z" style="mix-blend-mode:normal;fill:#546e7a;fill-rule:nonzero;stroke-width:.99999988"/><rect style="opacity:1;fill:#b3c3cb;fill-opacity:1;stroke:none;stroke-width:37.79526901;stroke-linecap:round;stroke-linejoin:miter;stroke-miterlimit:4;stroke-dasharray:none;stroke-opacity:1;paint-order:fill markers stroke" id="rect1739-6-1" width="655.417" height="338.992" x="-914.855" y="38.244" transform="rotate(-90)"/><path id="path1801-7" d="m 73.1429,73.14287 h 877.7142 c 40.2857,0 73.1429,32.86857 73.1429,73.14285 V 914.2857 c 0,20.12571 -16.4458,36.57142 -36.5715,36.57142 H 36.5714 C 16.4343,950.85712 0,934.42284 0,914.2857 V 146.28572 C 0,106.00001 32.8571,73.14287 73.1429,73.14287 Z m 0,219.42856 V 877.71427 H 950.8571 V 292.57143 Z" style="mix-blend-mode:normal;fill:#546e7a;fill-rule:nonzero;stroke-width:.99999988"/><path id="path1799-6" d="M 359.8801,276.79402 H 433.023 V 886.78767 H 359.8801 Z" style="mix-blend-mode:normal;fill:#546e7a;fill-rule:nonzero;stroke-width:.99999988"/><circle id="path1917-42" cx="920.662" cy="169.786" r="36.817" style="opacity:1;fill:#ffa726;fill-opacity:1;stroke:none;stroke-width:63.79999924;stroke-linecap:square;stroke-linejoin:round;stroke-miterlimit:4;stroke-dasharray:none;stroke-opacity:1;paint-order:stroke fill markers"/><circle id="path1917-4-6" cx="817.223" cy="169.786" r="36.817" style="opacity:1;fill:#fff;fill-opacity:1;stroke:none;stroke-width:63.79999924;stroke-linecap:square;stroke-linejoin:round;stroke-miterlimit:4;stroke-dasharray:none;stroke-opacity:1;paint-order:stroke fill markers"/><path id="path1799-8" d="m 615.67076,292.13464 v 73.14285 H 433.023 v -73.14285 z" style="mix-blend-mode:normal;fill:#95abb6;fill-rule:nonzero;stroke-width:.99999994;fill-opacity:1"/><path id="path1799-8-1" d="m 798.31852,292.13464 v 73.14285 H 615.67076 v -73.14285 z" style="mix-blend-mode:normal;fill:#c7d4d9;fill-rule:nonzero;stroke-width:.99999994;fill-opacity:1"/><path id="path1799-8-7" d="m 255.79066,292.57143 v 73.14285 H 73.1429 v -73.14285 z" style="mix-blend-mode:normal;fill:#dfe5e9;fill-opacity:1;fill-rule:nonzero;stroke-width:.99999994"/><path id="path1799-8-7-6" d="m 616.34083,651.15739 v 73.14285 H 433.69307 v -73.14285 z" style="mix-blend-mode:normal;fill:#ffba56;fill-opacity:1;fill-rule:nonzero;stroke-width:.99999994"/></svg>