<svg xmlns="http://www.w3.org/2000/svg" xmlns:svg="http://www.w3.org/2000/svg" id="svg2" width="16" height="16" version="1.1" viewBox="0 0 16 16"><style id="style2"/><g id="layer1" transform="translate(0,-1036.3622)"><g id="g5228" transform="translate(628,-140.49998)"><path id="path846" d="M 4.4765625 4.0019531 A 0.5 0.5 0 0 0 4.1464844 4.1464844 A 0.5 0.5 0 0 0 4.1464844 4.8535156 L 7.2929688 8 L 4.1464844 11.146484 A 0.5 0.5 0 0 0 4.1464844 11.853516 A 0.5 0.5 0 0 0 4.8535156 11.853516 L 8 8.7070312 L 11.146484 11.853516 A 0.5 0.5 0 0 0 11.853516 11.853516 A 0.5 0.5 0 0 0 11.853516 11.146484 L 8.7070312 8 L 11.853516 4.8535156 A 0.5 0.5 0 0 0 11.853516 4.1464844 A 0.5 0.5 0 0 0 11.476562 4.0019531 A 0.5 0.5 0 0 0 11.146484 4.1464844 L 8 7.2929688 L 4.8535156 4.1464844 A 0.5 0.5 0 0 0 4.4765625 4.0019531 z" transform="translate(-628,1176.8622)" style="color:#000;font-style:normal;font-variant:normal;font-weight:400;font-stretch:normal;font-size:medium;line-height:normal;font-family:sans-serif;font-variant-ligatures:normal;font-variant-position:normal;font-variant-caps:normal;font-variant-numeric:normal;font-variant-alternates:normal;font-variant-east-asian:normal;font-feature-settings:normal;font-variation-settings:normal;text-indent:0;text-align:start;text-decoration:none;text-decoration-line:none;text-decoration-style:solid;text-decoration-color:#000;letter-spacing:normal;word-spacing:normal;text-transform:none;writing-mode:lr-tb;direction:ltr;text-orientation:mixed;dominant-baseline:auto;baseline-shift:baseline;text-anchor:start;white-space:normal;shape-padding:0;shape-margin:0;inline-size:0;clip-rule:nonzero;display:inline;overflow:visible;visibility:visible;isolation:auto;mix-blend-mode:normal;color-interpolation:sRGB;color-interpolation-filters:linearRGB;solid-color:#000;solid-opacity:1;vector-effect:none;fill:#a0a0a0;fill-opacity:1;fill-rule:evenodd;stroke:none;stroke-width:1px;stroke-linecap:round;stroke-linejoin:miter;stroke-miterlimit:4;stroke-dasharray:none;stroke-dashoffset:0;stroke-opacity:1;color-rendering:auto;image-rendering:auto;shape-rendering:auto;text-rendering:auto;enable-background:accumulate;stop-color:#000;stop-opacity:1;opacity:1"/></g></g><metadata id="metadata12"/></svg>